<svg width="37" height="37" viewBox="0 0 37 37" fill="none" xmlns="http://www.w3.org/2000/svg">
<path fill-rule="evenodd" clip-rule="evenodd" d="M17.0786 3.46875C15.6649 3.46875 14.4593 4.49087 14.2265 5.88454L13.9521 7.53721C13.9213 7.72221 13.7748 7.93804 13.4942 8.07371C12.966 8.32764 12.4578 8.6214 11.9741 8.95246C11.7182 9.12975 11.4592 9.14671 11.2804 9.08042L9.71252 8.4915C9.07156 8.25137 8.36618 8.24647 7.72195 8.47768C7.07771 8.7089 6.53642 9.16121 6.19444 9.75413L4.77302 12.2162C4.43091 12.8087 4.31008 13.5034 4.43203 14.1767C4.55398 14.85 4.9108 15.4581 5.43902 15.893L6.73402 16.9599C6.88048 17.0801 6.9961 17.3129 6.97144 17.6228C6.9275 18.2073 6.9275 18.7943 6.97144 19.3787C6.99456 19.6871 6.88048 19.9214 6.73556 20.0417L5.43902 21.1085C4.9108 21.5434 4.55398 22.1516 4.43203 22.8249C4.31008 23.4981 4.43091 24.1928 4.77302 24.7854L6.19444 27.2474C6.53667 27.8401 7.07806 28.292 7.72227 28.523C8.36648 28.7539 9.07173 28.7488 9.71252 28.5085L11.2835 27.9196C11.4608 27.8533 11.7198 27.8718 11.9772 28.046C12.4582 28.3759 12.9654 28.6704 13.4958 28.9247C13.7764 29.0604 13.9228 29.2762 13.9536 29.4643L14.2281 31.1155C14.4609 32.5091 15.6664 33.5312 17.0801 33.5312H19.923C21.3351 33.5312 22.5423 32.5091 22.7751 31.1155L23.0495 29.4628C23.0803 29.2778 23.2252 29.062 23.5074 28.9247C24.0377 28.6704 24.5449 28.3759 25.0259 28.046C25.2834 27.8702 25.5424 27.8533 25.7196 27.9196L27.2921 28.5085C27.9327 28.7478 28.6374 28.7523 29.2809 28.5211C29.9245 28.2899 30.4653 27.8381 30.8071 27.2459L32.2301 24.7838C32.5722 24.1913 32.693 23.4966 32.5711 22.8233C32.4491 22.15 32.0923 21.5419 31.5641 21.107L30.2691 20.0401C30.1226 19.9199 30.007 19.6871 30.0317 19.3772C30.0755 18.7927 30.0755 18.2057 30.0317 17.6213C30.007 17.3129 30.1226 17.0786 30.2676 16.9583L31.5626 15.8915C32.6541 14.9942 32.9362 13.4402 32.2301 12.2146L30.8087 9.75258C30.4665 9.15995 29.9251 8.70795 29.2809 8.47703C28.6366 8.24611 27.9314 8.25123 27.2906 8.4915L25.7181 9.08042C25.5424 9.14671 25.2834 9.12821 25.0259 8.95246C24.5427 8.62146 24.0351 8.32769 23.5074 8.07371C23.2252 7.93958 23.0803 7.72375 23.0495 7.53721L22.7735 5.88454C22.6611 5.20939 22.3127 4.59604 21.7905 4.15366C21.2682 3.71128 20.6059 3.46858 19.9214 3.46875H17.0801H17.0786ZM18.5 24.2812C20.0333 24.2812 21.5038 23.6722 22.588 22.588C23.6722 21.5038 24.2813 20.0333 24.2813 18.5C24.2813 16.9667 23.6722 15.4962 22.588 14.412C21.5038 13.3278 20.0333 12.7188 18.5 12.7188C16.9667 12.7188 15.4963 13.3278 14.4121 14.412C13.3279 15.4962 12.7188 16.9667 12.7188 18.5C12.7188 20.0333 13.3279 21.5038 14.4121 22.588C15.4963 23.6722 16.9667 24.2812 18.5 24.2812Z" fill="black"/>
</svg>
