<svg width="36" height="36" viewBox="0 0 36 36" fill="none" xmlns="http://www.w3.org/2000/svg">
<path fill-rule="evenodd" clip-rule="evenodd" d="M6.75 3.375C6.45163 3.375 6.16548 3.49353 5.9545 3.7045C5.74353 3.91548 5.625 4.20163 5.625 4.5C5.625 4.79837 5.74353 5.08452 5.9545 5.2955C6.16548 5.50647 6.45163 5.625 6.75 5.625V30.375H5.625C5.32663 30.375 5.04048 30.4935 4.8295 30.7045C4.61853 30.9155 4.5 31.2016 4.5 31.5C4.5 31.7984 4.61853 32.0845 4.8295 32.2955C5.04048 32.5065 5.32663 32.625 5.625 32.625H30.375C30.6734 32.625 30.9595 32.5065 31.1705 32.2955C31.3815 32.0845 31.5 31.7984 31.5 31.5C31.5 31.2016 31.3815 30.9155 31.1705 30.7045C30.9595 30.4935 30.6734 30.375 30.375 30.375H29.25V5.625C29.5484 5.625 29.8345 5.50647 30.0455 5.2955C30.2565 5.08452 30.375 4.79837 30.375 4.5C30.375 4.20163 30.2565 3.91548 30.0455 3.7045C29.8345 3.49353 29.5484 3.375 29.25 3.375H6.75ZM13.5 9C13.2016 9 12.9155 9.11853 12.7045 9.3295C12.4935 9.54048 12.375 9.82663 12.375 10.125C12.375 10.4234 12.4935 10.7095 12.7045 10.9205C12.9155 11.1315 13.2016 11.25 13.5 11.25H15.75C16.0484 11.25 16.3345 11.1315 16.5455 10.9205C16.7565 10.7095 16.875 10.4234 16.875 10.125C16.875 9.82663 16.7565 9.54048 16.5455 9.3295C16.3345 9.11853 16.0484 9 15.75 9H13.5ZM12.375 14.625C12.375 14.3266 12.4935 14.0405 12.7045 13.8295C12.9155 13.6185 13.2016 13.5 13.5 13.5H15.75C16.0484 13.5 16.3345 13.6185 16.5455 13.8295C16.7565 14.0405 16.875 14.3266 16.875 14.625C16.875 14.9234 16.7565 15.2095 16.5455 15.4205C16.3345 15.6315 16.0484 15.75 15.75 15.75H13.5C13.2016 15.75 12.9155 15.6315 12.7045 15.4205C12.4935 15.2095 12.375 14.9234 12.375 14.625ZM13.5 18C13.2016 18 12.9155 18.1185 12.7045 18.3295C12.4935 18.5405 12.375 18.8266 12.375 19.125C12.375 19.4234 12.4935 19.7095 12.7045 19.9205C12.9155 20.1315 13.2016 20.25 13.5 20.25H15.75C16.0484 20.25 16.3345 20.1315 16.5455 19.9205C16.7565 19.7095 16.875 19.4234 16.875 19.125C16.875 18.8266 16.7565 18.5405 16.5455 18.3295C16.3345 18.1185 16.0484 18 15.75 18H13.5ZM19.125 10.125C19.125 9.82663 19.2435 9.54048 19.4545 9.3295C19.6655 9.11853 19.9516 9 20.25 9H22.5C22.7984 9 23.0845 9.11853 23.2955 9.3295C23.5065 9.54048 23.625 9.82663 23.625 10.125C23.625 10.4234 23.5065 10.7095 23.2955 10.9205C23.0845 11.1315 22.7984 11.25 22.5 11.25H20.25C19.9516 11.25 19.6655 11.1315 19.4545 10.9205C19.2435 10.7095 19.125 10.4234 19.125 10.125ZM20.25 13.5C19.9516 13.5 19.6655 13.6185 19.4545 13.8295C19.2435 14.0405 19.125 14.3266 19.125 14.625C19.125 14.9234 19.2435 15.2095 19.4545 15.4205C19.6655 15.6315 19.9516 15.75 20.25 15.75H22.5C22.7984 15.75 23.0845 15.6315 23.2955 15.4205C23.5065 15.2095 23.625 14.9234 23.625 14.625C23.625 14.3266 23.5065 14.0405 23.2955 13.8295C23.0845 13.6185 22.7984 13.5 22.5 13.5H20.25ZM19.125 19.125C19.125 18.8266 19.2435 18.5405 19.4545 18.3295C19.6655 18.1185 19.9516 18 20.25 18H22.5C22.7984 18 23.0845 18.1185 23.2955 18.3295C23.5065 18.5405 23.625 18.8266 23.625 19.125C23.625 19.4234 23.5065 19.7095 23.2955 19.9205C23.0845 20.1315 22.7984 20.25 22.5 20.25H20.25C19.9516 20.25 19.6655 20.1315 19.4545 19.9205C19.2435 19.7095 19.125 19.4234 19.125 19.125ZM13.5 29.25V25.875C13.5 25.5766 13.6185 25.2905 13.8295 25.0795C14.0405 24.8685 14.3266 24.75 14.625 24.75H21.375C21.6734 24.75 21.9595 24.8685 22.1705 25.0795C22.3815 25.2905 22.5 25.5766 22.5 25.875V29.25C22.5 29.5484 22.3815 29.8345 22.1705 30.0455C21.9595 30.2565 21.6734 30.375 21.375 30.375H14.625C14.3266 30.375 14.0405 30.2565 13.8295 30.0455C13.6185 29.8345 13.5 29.5484 13.5 29.25Z" fill="black"/>
</svg>
