<svg width="40" height="41" viewBox="0 0 40 41" fill="none" xmlns="http://www.w3.org/2000/svg">
<g filter="url(#filter0_d_1122_1264)">
<path fill-rule="evenodd" clip-rule="evenodd" d="M14.375 10.125C14.375 8.63316 14.9676 7.20242 16.0225 6.14752C17.0774 5.09263 18.5082 4.5 20 4.5C21.4918 4.5 22.9226 5.09263 23.9775 6.14752C25.0324 7.20242 25.625 8.63316 25.625 10.125C25.625 11.6168 25.0324 13.0476 23.9775 14.1025C22.9226 15.1574 21.4918 15.75 20 15.75C18.5082 15.75 17.0774 15.1574 16.0225 14.1025C14.9676 13.0476 14.375 11.6168 14.375 10.125ZM25.625 14.625C25.625 13.4315 26.0991 12.2869 26.943 11.443C27.7869 10.5991 28.9315 10.125 30.125 10.125C31.3185 10.125 32.4631 10.5991 33.307 11.443C34.1509 12.2869 34.625 13.4315 34.625 14.625C34.625 15.8185 34.1509 16.9631 33.307 17.807C32.4631 18.6509 31.3185 19.125 30.125 19.125C28.9315 19.125 27.7869 18.6509 26.943 17.807C26.0991 16.9631 25.625 15.8185 25.625 14.625ZM5.375 14.625C5.375 13.4315 5.84911 12.2869 6.69302 11.443C7.53693 10.5991 8.68153 10.125 9.875 10.125C11.0685 10.125 12.2131 10.5991 13.057 11.443C13.9009 12.2869 14.375 13.4315 14.375 14.625C14.375 15.8185 13.9009 16.9631 13.057 17.807C12.2131 18.6509 11.0685 19.125 9.875 19.125C8.68153 19.125 7.53693 18.6509 6.69302 17.807C5.84911 16.9631 5.375 15.8185 5.375 14.625ZM11.465 22.6755C12.3799 21.2415 13.6416 20.0614 15.1334 19.2442C16.6252 18.4269 18.299 17.999 20 18C21.4247 17.9987 22.8337 18.2983 24.1346 18.8792C25.4355 19.4602 26.5991 20.3093 27.5491 21.3711C28.4991 22.4328 29.2142 23.6832 29.6475 25.0405C30.0808 26.3977 30.2226 27.8312 30.0635 29.247C30.0441 29.4229 29.9834 29.5917 29.8864 29.7398C29.7895 29.8878 29.659 30.0109 29.5055 30.099C26.6128 31.7588 23.335 32.6298 20 32.625C16.5425 32.625 13.295 31.707 10.4945 30.099C10.341 30.0109 10.2105 29.8878 10.1136 29.7398C10.0166 29.5917 9.95594 29.4229 9.9365 29.247C9.68458 26.9469 10.2237 24.6297 11.465 22.677V22.6755Z" fill="black"/>
<path d="M9.623 21.381C8.14363 23.6646 7.45438 26.3704 7.661 29.0835C6.76026 28.9469 5.87436 28.7259 5.015 28.4235L4.8425 28.3635C4.68859 28.3089 4.55383 28.2108 4.45452 28.0811C4.35522 27.9515 4.29564 27.7958 4.283 27.633L4.268 27.4515C4.20741 26.6984 4.29913 25.9409 4.53771 25.2241C4.77628 24.5072 5.15681 23.8458 5.65658 23.2792C6.15636 22.7127 6.76515 22.2526 7.44662 21.9265C8.12808 21.6003 8.86827 21.4148 9.623 21.381ZM32.339 29.0835C32.5456 26.3704 31.8564 23.6646 30.377 21.381C31.1317 21.4148 31.8719 21.6003 32.5534 21.9265C33.2348 22.2526 33.8436 22.7127 34.3434 23.2792C34.8432 23.8458 35.2237 24.5072 35.4623 25.2241C35.7009 25.9409 35.7926 26.6984 35.732 27.4515L35.717 27.633C35.7041 27.7955 35.6444 27.9509 35.5451 28.0802C35.4458 28.2096 35.3112 28.3075 35.1575 28.362L34.985 28.422C34.1345 28.722 33.251 28.9455 32.339 29.0835Z" fill="black"/>
</g>
<defs>
<filter id="filter0_d_1122_1264" x="-2" y="0" width="44" height="44" filterUnits="userSpaceOnUse" color-interpolation-filters="sRGB">
<feFlood flood-opacity="0" result="BackgroundImageFix"/>
<feColorMatrix in="SourceAlpha" type="matrix" values="0 0 0 0 0 0 0 0 0 0 0 0 0 0 0 0 0 0 127 0" result="hardAlpha"/>
<feOffset dy="4"/>
<feGaussianBlur stdDeviation="2"/>
<feComposite in2="hardAlpha" operator="out"/>
<feColorMatrix type="matrix" values="0 0 0 0 0 0 0 0 0 0 0 0 0 0 0 0 0 0 0.25 0"/>
<feBlend mode="normal" in2="BackgroundImageFix" result="effect1_dropShadow_1122_1264"/>
<feBlend mode="normal" in="SourceGraphic" in2="effect1_dropShadow_1122_1264" result="shape"/>
</filter>
</defs>
</svg>
