<svg width="36" height="36" viewBox="0 0 36 36" fill="none" xmlns="http://www.w3.org/2000/svg">
<path d="M3.375 3.375C3.07663 3.375 2.79048 3.49353 2.5795 3.7045C2.36853 3.91548 2.25 4.20163 2.25 4.5C2.25 4.79837 2.36853 5.08452 2.5795 5.2955C2.79048 5.50647 3.07663 5.625 3.375 5.625H5.454C5.709 5.625 5.931 5.796 5.997 6.042L9.834 20.43C8.62886 20.744 7.5619 21.4489 6.80024 22.4342C6.03859 23.4195 5.62526 24.6296 5.625 25.875C5.625 26.496 6.129 27 6.75 27H30.375C30.6734 27 30.9595 26.8815 31.1705 26.6705C31.3815 26.4595 31.5 26.1734 31.5 25.875C31.5 25.5766 31.3815 25.2905 31.1705 25.0795C30.9595 24.8685 30.6734 24.75 30.375 24.75H8.067C8.2997 24.0918 8.73078 23.522 9.30084 23.119C9.8709 22.7161 10.5519 22.4998 11.25 22.5H28.077C28.2878 22.5 28.4943 22.4408 28.673 22.3292C28.8518 22.2175 28.9956 22.0579 29.088 21.8685C30.8005 18.3542 32.2836 14.7326 33.528 11.0265C33.5772 10.8799 33.5956 10.7247 33.5821 10.5707C33.5686 10.4166 33.5235 10.267 33.4496 10.1312C33.3757 9.99536 33.2746 9.87622 33.1526 9.78121C33.0306 9.6862 32.8903 9.61737 32.7405 9.579C24.8292 7.56173 16.6831 6.61478 8.52 6.7635L8.172 5.463C8.01234 4.86411 7.65932 4.33474 7.1678 3.95715C6.67629 3.57956 6.07381 3.37491 5.454 3.375H3.375ZM5.625 30.375C5.625 29.7783 5.86205 29.206 6.28401 28.784C6.70597 28.3621 7.27826 28.125 7.875 28.125C8.47174 28.125 9.04403 28.3621 9.46599 28.784C9.88795 29.206 10.125 29.7783 10.125 30.375C10.125 30.9717 9.88795 31.544 9.46599 31.966C9.04403 32.3879 8.47174 32.625 7.875 32.625C7.27826 32.625 6.70597 32.3879 6.28401 31.966C5.86205 31.544 5.625 30.9717 5.625 30.375ZM24.75 30.375C24.75 29.7783 24.9871 29.206 25.409 28.784C25.831 28.3621 26.4033 28.125 27 28.125C27.5967 28.125 28.169 28.3621 28.591 28.784C29.0129 29.206 29.25 29.7783 29.25 30.375C29.25 30.9717 29.0129 31.544 28.591 31.966C28.169 32.3879 27.5967 32.625 27 32.625C26.4033 32.625 25.831 32.3879 25.409 31.966C24.9871 31.544 24.75 30.9717 24.75 30.375Z" fill="black"/>
</svg>
