<svg width="36" height="36" viewBox="0 0 36 36" fill="none" xmlns="http://www.w3.org/2000/svg">
<path fill-rule="evenodd" clip-rule="evenodd" d="M8.4375 2.25H13.5C14.9918 2.25 16.4226 2.84263 17.4775 3.89752C18.5324 4.95242 19.125 6.38316 19.125 7.875V10.6875C19.125 12.2415 20.385 13.5 21.9375 13.5H24.75C26.2418 13.5 27.6726 14.0926 28.7275 15.1475C29.7824 16.2024 30.375 17.6332 30.375 19.125V30.9375C30.375 32.49 29.115 33.75 27.5625 33.75H8.4375C7.69158 33.75 6.97621 33.4537 6.44876 32.9262C5.92132 32.3988 5.625 31.6834 5.625 30.9375V5.0625C5.625 3.5085 6.885 2.25 8.4375 2.25ZM14.625 25.875C14.625 25.5766 14.5065 25.2905 14.2955 25.0795C14.0845 24.8685 13.7984 24.75 13.5 24.75C13.2016 24.75 12.9155 24.8685 12.7045 25.0795C12.4935 25.2905 12.375 25.5766 12.375 25.875V27C12.375 27.2984 12.4935 27.5845 12.7045 27.7955C12.9155 28.0065 13.2016 28.125 13.5 28.125C13.7984 28.125 14.0845 28.0065 14.2955 27.7955C14.5065 27.5845 14.625 27.2984 14.625 27V25.875ZM18 21.375C18.2984 21.375 18.5845 21.4935 18.7955 21.7045C19.0065 21.9155 19.125 22.2016 19.125 22.5V27C19.125 27.2984 19.0065 27.5845 18.7955 27.7955C18.5845 28.0065 18.2984 28.125 18 28.125C17.7016 28.125 17.4155 28.0065 17.2045 27.7955C16.9935 27.5845 16.875 27.2984 16.875 27V22.5C16.875 22.2016 16.9935 21.9155 17.2045 21.7045C17.4155 21.4935 17.7016 21.375 18 21.375ZM23.625 19.125C23.625 18.8266 23.5065 18.5405 23.2955 18.3295C23.0845 18.1185 22.7984 18 22.5 18C22.2016 18 21.9155 18.1185 21.7045 18.3295C21.4935 18.5405 21.375 18.8266 21.375 19.125V27C21.375 27.2984 21.4935 27.5845 21.7045 27.7955C21.9155 28.0065 22.2016 28.125 22.5 28.125C22.7984 28.125 23.0845 28.0065 23.2955 27.7955C23.5065 27.5845 23.625 27.2984 23.625 27V19.125Z" fill="black"/>
<path d="M21.375 7.875C21.3776 5.98282 20.6963 4.15345 19.4565 2.724C21.9664 3.38395 24.256 4.69871 26.0912 6.53383C27.9263 8.36895 29.241 10.6586 29.901 13.1685C28.4715 11.9287 26.6422 11.2474 24.75 11.25H21.9375C21.7883 11.25 21.6452 11.1907 21.5397 11.0852C21.4342 10.9798 21.375 10.8367 21.375 10.6875V7.875Z" fill="black"/>
</svg>
